<?xml version="1.0" standalone="no"?>
<!DOCTYPE svg PUBLIC "-//W3C//DTD SVG 20010904//EN"
 "http://www.w3.org/TR/2001/REC-SVG-20010904/DTD/svg10.dtd">
<svg version="1.0" xmlns="http://www.w3.org/2000/svg"
 width="200.000000pt" height="200.000000pt" viewBox="0 0 200.000000 200.000000"
 preserveAspectRatio="xMidYMid meet">

<g transform="translate(0.000000,200.000000) scale(0.100000,-0.100000)"
fill="#000000" stroke="none">
<path style="fill: rgb(80, 10, 10);" d="M849 1926 c-11 -20 -22 -36 -22 -37 -1 0 -46 -4 -100 -8 -109 -8
-150 -28 -155 -74 -3 -27 88 -216 114 -238 6 -5 43 -18 82 -29 70 -19 70 -19
153 1 68 18 89 19 119 10 21 -6 51 -11 68 -11 17 0 42 -5 55 -11 21 -9 32 -7
69 15 66 38 154 66 212 66 28 0 57 4 65 9 49 31 -95 238 -179 256 -18 4 -41 0
-61 -10 -52 -27 -109 -15 -190 40 -63 43 -77 48 -139 53 l-69 5 -22 -37z"/>
<path style="fill: rgb(200, 150, 50);" d="M967 1514 c-3 -3 -32 -11 -64 -18 -48 -9 -58 -15 -58 -31 0 -11 5
-19 10 -19 6 1 29 5 53 9 54 9 54 -5 2 -42 -38 -27 -48 -52 -24 -60 6 -2 33
14 59 36 l48 40 54 -50 c55 -50 76 -58 89 -37 4 6 -14 29 -44 55 -29 25 -52
49 -52 54 0 6 25 9 55 8 59 -3 71 2 62 24 -7 20 -174 47 -190 31z"/>
<path style="fill: rgb(80, 10, 10);" d="M1173 1426 c-27 -13 -28 -19 -8 -36 21 -17 19 -63 -3 -83 -30 -27
-66 -20 -118 22 l-49 39 -35 -28 c-51 -40 -72 -44 -104 -19 -23 18 -27 28 -24
55 2 21 0 34 -7 34 -15 0 -292 -159 -337 -194 -76 -57 -98 -106 -214 -468
l-77 -240 6 -122 c6 -115 5 -124 -18 -175 -30 -63 -31 -87 -7 -100 14 -8 29
-3 63 20 39 27 51 30 104 27 42 -3 84 -15 141 -41 150 -68 176 -72 494 -72
311 0 329 2 515 62 137 43 195 50 255 29 56 -19 90 -20 90 -2 0 7 -12 40 -27
72 -30 65 -31 91 -22 414 4 137 3 148 -21 203 -26 59 -321 449 -393 519 -34
33 -155 100 -175 97 -4 -1 -17 -6 -29 -13z"/>
</g>
</svg>
