<?xml version="1.0" standalone="no"?>
<!DOCTYPE svg PUBLIC "-//W3C//DTD SVG 20010904//EN"
 "http://www.w3.org/TR/2001/REC-SVG-20010904/DTD/svg10.dtd">
<svg version="1.0" xmlns="http://www.w3.org/2000/svg"
 width="815.000000pt" height="768.000000pt" viewBox="0 0 815.000000 768.000000"
 preserveAspectRatio="xMidYMid meet">

<g transform="translate(0.000000,768.000000) scale(0.100000,-0.100000)"
fill="#000000" stroke="none">
<path d="M4002 7270 c-23 -69 -208 -640 -412 -1270 -204 -630 -385 -1187 -401
-1237 l-31 -93 -1434 -2 -1434 -3 1160 -843 c663 -482 1157 -848 1155 -855
-67 -197 -875 -2701 -872 -2703 2 -3 519 370 1148 827 629 458 1151 834 1159
835 8 2 532 -372 1164 -832 631 -459 1150 -834 1151 -832 2 2 -194 612 -436
1357 -241 744 -437 1356 -434 1361 2 4 524 385 1159 846 l1154 839 -1435 5
-1436 5 -436 1345 c-241 740 -440 1352 -442 1360 -3 8 -24 -41 -47 -110z"/>
</g>
</svg>
